<?xml version="1.0" encoding="UTF-8"?>
<svg width="102.4" height="102.4" enable-background="new 0 0 96 96" version="1.1" viewBox="0 0 96 96" xmlns="http://www.w3.org/2000/svg" xmlns:xlink="http://www.w3.org/1999/xlink"><defs><linearGradient id="a" x1="48" x2="48" y1="8" y2="88.001" gradientUnits="userSpaceOnUse"><stop style="stop-color:#fcfcfc" offset=".04"/><stop style="stop-color:#fcbcb7" offset=".19"/><stop style="stop-color:#ff988c" offset=".51"/><stop style="stop-color:#ff503c" offset="1"/></linearGradient><linearGradient id="b" x1="48" x2="48" y1="8.0107" y2="87.99" gradientUnits="userSpaceOnUse"><stop style="stop-color:#f8503c" offset=".0364"/><stop style="stop-color:#a74134" offset="1"/></linearGradient></defs><g><rect width="96" height="96" style="fill-opacity:0"/></g><g><path d="m88.023 49c0 29.633-10.364 40-40 40-29.635 0-40-10.367-40-40 0-29.634 10.366-40 40-40 29.636 0 40 10.365 40 40z" style="opacity:.4"/></g><g><path d="m8 47.989c0 29.633 10.365 40 40 40 29.637 0 40-10.367 40-40 0-28.985-9.926-39.53-38.091-39.979h-3.817c-28.164 0.449-38.092 10.994-38.092 39.979z" clip-rule="evenodd" style="fill-rule:evenodd;fill:url(#b)"/><path d="m48 8c-29.635 0-40 10.365-40 40 0 29.633 10.365 40 40 40 29.637 0 40-10.367 40-40 0-29.635-10.363-40-40-40zm0 79.023c-29.158 0-39-9.847-39-39.023s9.842-39.023 39-39.023 39 9.847 39 39.023-9.842 39.023-39 39.023z" style="fill:url(#a);opacity:.25"/></g><g><path d="m59.89 47.828a4.7882 4.7882 0 0 1-4.7882-4.7882 4.7882 4.7882 0 0 1 4.7882-4.7882 4.7882 4.7882 0 0 1 4.7882 4.7882 4.7882 4.7882 0 0 1-4.7882 4.7882m0-18.195a13.407 13.407 0 0 0-13.407 13.407c0 10.055 13.407 24.899 13.407 24.899s13.407-14.844 13.407-24.899a13.407 13.407 0 0 0-13.407-13.407zm-36.947 41.475h4.9444l16.704-44.477h-5.0547z" style="opacity:.5"/></g><g><path d="m59.776 46.948a4.7882 4.7882 0 0 1-4.7882-4.7882 4.7882 4.7882 0 0 1 4.7882-4.7882 4.7882 4.7882 0 0 1 4.7882 4.7882 4.7882 4.7882 0 0 1-4.7882 4.7882m0-18.195a13.407 13.407 0 0 0-13.407 13.407c0 10.055 13.407 24.899 13.407 24.899s13.407-14.844 13.407-24.899a13.407 13.407 0 0 0-13.407-13.407zm-36.947 41.475h4.9444l16.704-44.477h-5.0547z" style="fill:#fff;stroke-width:1.9153"/></g></svg>
